<?xml version="1.0" encoding="UTF-8"?>
<svg id="b" data-name="Layer 2" xmlns="http://www.w3.org/2000/svg" xmlns:xlink="http://www.w3.org/1999/xlink" viewBox="0 0 450 272.28">
  <defs>
    <style>
      .e {
        fill: url(#d);
        stroke-width: 0px;
      }
    </style>
    <linearGradient id="d" x1="0" y1="136.14" x2="450" y2="136.14" gradientUnits="userSpaceOnUse">
      <stop offset="0" stop-color="#ee0979"/>
      <stop offset="1" stop-color="#ff6a00"/>
    </linearGradient>
  </defs>
  <g id="c" data-name="Layer 1">
    <path class="e" d="m450,196.09c-23.88-5.29-49.44-3.92-72.6,3.39-10.68,3.39-21.36,8.05-30.6,13.87-8.76,5.61-16.2,13.34-26.64,16.62-9.84,3.07-19.56.95-28.68-2.86-16.92-7.09-33.48-15.78-52.32-8.79-17.04,6.25-28.08,21.28-39.84,33.14-10.32,10.38-23.16,20.01-39.48,20.75-30.6,1.48-47.4-25.09-66.6-41.61-21.6-18.53-51.6-33.88-82.56-27-3.84.85-7.68,2.12-10.68,4.45V0h450v196.09Z"/>
  </g>
</svg>